<?xml version="1.0" standalone="no"?><!DOCTYPE svg PUBLIC "-//W3C//DTD SVG 1.1//EN" "http://www.w3.org/Graphics/SVG/1.1/DTD/svg11.dtd"><svg t="1677133703197" class="icon" viewBox="0 0 1024 1024" version="1.1" xmlns="http://www.w3.org/2000/svg" p-id="3741" xmlns:xlink="http://www.w3.org/1999/xlink" width="200" height="200"><path d="M0 0h1024v1024H0V0z" fill="#202425" opacity=".01" p-id="3742"></path><path d="M68.266667 204.8a136.533333 136.533333 0 0 1 136.533333-136.533333h136.533333a136.533333 136.533333 0 0 1 136.533334 136.533333v136.533333a136.533333 136.533333 0 0 1-136.533334 136.533334H204.8a136.533333 136.533333 0 0 1-136.533333-136.533334V204.8z m0 477.866667a136.533333 136.533333 0 0 1 136.533333-136.533334h136.533333a136.533333 136.533333 0 0 1 136.533334 136.533334v136.533333a136.533333 136.533333 0 0 1-136.533334 136.533333H204.8a136.533333 136.533333 0 0 1-136.533333-136.533333v-136.533333zM682.666667 68.266667a136.533333 136.533333 0 0 0-136.533334 136.533333v136.533333a136.533333 136.533333 0 0 0 136.533334 136.533334h136.533333a136.533333 136.533333 0 0 0 136.533333-136.533334V204.8a136.533333 136.533333 0 0 0-136.533333-136.533333h-136.533333z" fill="#FF7744" p-id="3743"></path><path d="M170.666667 238.933333a68.266667 68.266667 0 0 1 68.266666-68.266666h68.266667a68.266667 68.266667 0 0 1 68.266667 68.266666v68.266667a68.266667 68.266667 0 0 1-68.266667 68.266667H238.933333a68.266667 68.266667 0 0 1-68.266666-68.266667V238.933333z m477.866666 0a68.266667 68.266667 0 0 1 68.266667-68.266666h68.266667a68.266667 68.266667 0 0 1 68.266666 68.266666v68.266667a68.266667 68.266667 0 0 1-68.266666 68.266667h-68.266667a68.266667 68.266667 0 0 1-68.266667-68.266667V238.933333zM238.933333 648.533333a68.266667 68.266667 0 0 0-68.266666 68.266667v68.266667a68.266667 68.266667 0 0 0 68.266666 68.266666h68.266667a68.266667 68.266667 0 0 0 68.266667-68.266666v-68.266667a68.266667 68.266667 0 0 0-68.266667-68.266667H238.933333z" fill="#FFFFFF" p-id="3744"></path><path d="M887.466667 546.133333a34.133333 34.133333 0 0 0-34.133334 34.133334v341.333333a34.133333 34.133333 0 0 0 34.133334 34.133333h34.133333a34.133333 34.133333 0 0 0 34.133333-34.133333V580.266667a34.133333 34.133333 0 0 0-34.133333-34.133334h-34.133333z m-238.933334 34.133334v273.066666h102.4a34.133333 34.133333 0 0 1 34.133334 34.133334v34.133333a34.133333 34.133333 0 0 1-34.133334 34.133333h-170.666666a34.133333 34.133333 0 0 1-34.133334-34.133333V580.266667a34.133333 34.133333 0 0 1 34.133334-34.133334h34.133333a34.133333 34.133333 0 0 1 34.133333 34.133334z m102.4 34.133333a34.133333 34.133333 0 0 0-34.133333 34.133333v102.4a34.133333 34.133333 0 1 0 68.266667 0v-102.4a34.133333 34.133333 0 0 0-34.133334-34.133333z" fill="#FFAA44" p-id="3745"></path></svg>